<svg width="23" height="32" viewBox="0 0 23 32" fill="none" xmlns="http://www.w3.org/2000/svg">
<path d="M11.2988 1C5.778 1 1.29883 5.42738 1.29883 10.8803C1.29883 17.1546 7.9655 27.0977 10.4134 30.532C10.515 30.677 10.6482 30.7949 10.8021 30.8763C10.956 30.9576 11.1262 31 11.2988 31C11.4715 31 11.6417 30.9576 11.7956 30.8763C11.9495 30.7949 12.0826 30.677 12.1842 30.532C14.6322 27.0991 21.2988 17.1597 21.2988 10.8803C21.2988 5.42738 16.8197 1 11.2988 1Z" stroke="#1C2752" stroke-width="2" stroke-linecap="round" stroke-linejoin="round"/>
<path d="M11.2988 16C13.508 16 15.2988 14.2091 15.2988 12C15.2988 9.79086 13.508 8 11.2988 8C9.08969 8 7.29883 9.79086 7.29883 12C7.29883 14.2091 9.08969 16 11.2988 16Z" stroke="#1C2752" stroke-width="2" stroke-linecap="round" stroke-linejoin="round"/>
</svg>
